# xmcd
#
# Track frame offsets:
# 150
# 16508
# 37429
# 48087
# 67509
# 86879
# 105133
# 127716
# 149474
# 167913
# 184502
# 196301
# 209049
# 225331
# 241116
# 261390
# 283597
# 296372
# 315589
# 325008
#
# Disc length: 4608 seconds
#
# Revision: 0
# Processed by: cddbd v1.5.1PL0 Copyright (c) Steve Scherf et al.
# Submitted via: Audion 3.0.2 (http://www.panic.com/audion/)
#
DISCID=0c11fe14
DTITLE=Omnibus - Mash UP
DYEAR=1900
DGENRE=
TTITLE0=01-Mash Up
TTITLE1=02-Mash Up
TTITLE2=03-Mash Up
TTITLE3=04-Mash Up
TTITLE4=05-Mash Up
TTITLE5=06-Mash Up
TTITLE6=07-Mash Up
TTITLE7=08-Mash Up
TTITLE8=09-Mash Up
TTITLE9=10-Mash Up
TTITLE10=11-Mash Up
TTITLE11=12-Mash Up
TTITLE12=13-Mash Up
TTITLE13=14-Mash Up
TTITLE14=15-Mash Up
TTITLE15=16-Mash Up
TTITLE16=17-Mash Up
TTITLE17=18-Mash Up
TTITLE18=19-Mash Up
TTITLE19=20-Mash Up
EXTD=
EXTT0=
EXTT1=
EXTT2=
EXTT3=
EXTT4=
EXTT5=
EXTT6=
EXTT7=
EXTT8=
EXTT9=
EXTT10=
EXTT11=
EXTT12=
EXTT13=
EXTT14=
EXTT15=
EXTT16=
EXTT17=
EXTT18=
EXTT19=
PLAYORDER=
